<?xml version="1.0" encoding="UTF-8" standalone="no"?>
<!-- Created with Inkscape (http://www.inkscape.org/) -->

<svg
   width="960"
   height="480"
   viewBox="0 0 960 480"
   version="1.1"
   id="svg1"
   inkscape:version="1.3.2 (091e20e, 2023-11-25, custom)"
   sodipodi:docname="EBout.svg"
   xmlns:inkscape="http://www.inkscape.org/namespaces/inkscape"
   xmlns:sodipodi="http://sodipodi.sourceforge.net/DTD/sodipodi-0.dtd"
   xmlns="http://www.w3.org/2000/svg"
   xmlns:svg="http://www.w3.org/2000/svg">
  <sodipodi:namedview
     id="namedview1"
     pagecolor="#ffffff"
     bordercolor="#000000"
     borderopacity="0.25"
     inkscape:showpageshadow="2"
     inkscape:pageopacity="0.0"
     inkscape:pagecheckerboard="0"
     inkscape:deskcolor="#d1d1d1"
     inkscape:document-units="px"
     showguides="true"
     inkscape:lockguides="false"
     inkscape:zoom="0.72426347"
     inkscape:cx="461.84851"
     inkscape:cy="305.13758"
     inkscape:window-width="1278"
     inkscape:window-height="1000"
     inkscape:window-x="3193"
     inkscape:window-y="0"
     inkscape:window-maximized="0"
     inkscape:current-layer="layer1" />
  <defs
     id="defs1">
    <clipPath
       clipPathUnits="userSpaceOnUse"
       id="clipPath8">
      <path
         d="M 0,0 H 960 V 960 H 0 Z"
         transform="translate(-752.77306,-237.5129)"
         id="path8" />
    </clipPath>
    <clipPath
       clipPathUnits="userSpaceOnUse"
       id="clipPath30">
      <path
         d="M 0,0 H 960 V 960 H 0 Z"
         transform="translate(-741.66171,-269.30026)"
         id="path30" />
    </clipPath>
  </defs>
  <g
     inkscape:label="Layer 1"
     inkscape:groupmode="layer"
     id="layer1">
    <g
       id="g1"
       transform="translate(-9.6649917,-35.898538)">
      <path
         id="path7"
         d="M 56.5908,0 C 56.5908,24.6565 31.2542,44.6446 0,44.6446 -31.2542,44.6446 -56.5908,24.6565 -56.5908,0 c 0,-24.6565 25.3366,-44.6446 56.5908,-44.6446 31.2542,0 56.5908,19.9881 56.5908,44.6446 M 14.26,0 c 0,-6.2131 -6.3844,-11.2497 -14.26,-11.2497 -7.8756,0 -14.26,5.0366 -14.26,11.2497 0,6.2131 6.3844,11.2497 14.26,11.2497 7.8756,0 14.26,-5.0366 14.26,-11.2497 z"
         style="fill:#f3f6fb;fill-opacity:1;fill-rule:nonzero;stroke:#8594b6;stroke-width:2;stroke-linecap:butt;stroke-linejoin:round;stroke-miterlimit:4;stroke-dasharray:none;stroke-opacity:1"
         transform="translate(487.12417,173.77119)"
         clip-path="url(#clipPath8)" />
      <path
         id="path29"
         d="m 9.0453254,-6.1401036 h -5.75 v 4.703125 h 6.671875 V 5.2137e-4 H 1.5453254 V -13.280729 h 8.34375 v 1.453125 h -6.59375 v 4.2656254 h 5.75 z M 12.1547,5.2137e-4 V -13.280729 h 4.328125 c 1.445313,0 2.53125,0.304688 3.25,0.90625 0.726563,0.59375 1.09375,1.476563 1.09375,2.6406254 0,0.6171875 -0.179687,1.1640625 -0.53125,1.640625 -0.355468,0.4804687 -0.835937,0.8515625 -1.4375,1.109375 0.71875,0.1992187 1.285157,0.578125 1.703125,1.140625 0.414063,0.5625 0.625,1.234375 0.625,2.015625 0,1.1875 -0.386718,2.125 -1.15625,2.8125 -0.773437,0.67968747 -1.867187,1.01562497 -3.28125,1.01562497 z m 1.75,-6.20312497 v 4.765625 h 2.890625 c 0.8125,0 1.453125,-0.2070313 1.921875,-0.625 0.46875,-0.4257813 0.703125,-1.0078125 0.703125,-1.75 0,-1.59375 -0.871093,-2.390625 -2.609375,-2.390625 z m 0,-1.40625 h 2.640625 c 0.757813,0 1.367188,-0.1914063 1.828125,-0.578125 0.457032,-0.3828125 0.6875,-0.90625 0.6875,-1.5625 0,-0.7265624 -0.214843,-1.2539064 -0.640625,-1.5781254 -0.417968,-0.332031 -1.0625,-0.5 -1.9375,-0.5 H 13.9047 Z m 0,0"
         style="fill:#000000;fill-opacity:1;fill-rule:nonzero;stroke:none"
         aria-label="EB"
         transform="translate(476.01282,205.55855)"
         clip-path="url(#clipPath30)" />
    </g>
  </g>
</svg>
